<?xml version="1.0" standalone="no"?>
<!DOCTYPE svg PUBLIC "-//W3C//DTD SVG 20010904//EN"
 "http://www.w3.org/TR/2001/REC-SVG-20010904/DTD/svg10.dtd">
<svg version="1.0" xmlns="http://www.w3.org/2000/svg"
 width="394.000000pt" height="394.000000pt" viewBox="0 0 394.000000 394.000000"
 preserveAspectRatio="xMidYMid meet">
<metadata>
Created by potrace 1.11, written by Peter Selinger 2001-2013
</metadata>
<g transform="translate(0.000000,394.000000) scale(0.100000,-0.100000)"
fill="#000000" stroke="none">
<path d="M1750 3480 c-275 -54 -432 -116 -630 -247 -146 -98 -320 -269 -409
-402 -95 -143 -183 -335 -220 -477 -65 -249 -62 -557 9 -810 131 -475 512
-873 988 -1033 440 -148 949 -79 1338 182 549 369 798 1056 615 1702 -113 400
-424 766 -805 946 -232 109 -371 140 -641 145 -110 1 -220 -1 -245 -6z"/>
</g>
</svg>
